<svg width="593" height="593" viewBox="0 0 593 593" fill="none" xmlns="http://www.w3.org/2000/svg">
<rect width="593" height="593" fill="#1290CB"/>
<rect x="203.844" y="160.604" width="49.4167" height="49.4167" rx="3.08854" fill="white"/>
<rect x="271.792" y="160.604" width="49.4167" height="49.4167" rx="3.08854" fill="white"/>
<rect x="339.74" y="160.604" width="49.4167" height="49.4167" rx="3.08854" fill="white"/>
<rect x="339.74" y="228.552" width="49.4167" height="49.4167" rx="3.08854" fill="white"/>
<rect x="271.792" y="228.552" width="49.4167" height="49.4167" rx="3.08854" fill="white"/>
<rect x="203.844" y="228.552" width="49.4167" height="49.4167" rx="3.08854" fill="white"/>
<rect x="339.74" y="296.5" width="49.4167" height="49.4167" rx="3.08854" fill="white"/>
<rect x="271.792" y="296.5" width="49.4167" height="49.4167" rx="3.08854" fill="white"/>
<rect x="204" y="297" width="49.4167" height="49.4167" rx="3.08854" fill="white"/>
<path d="M203.572 432.454C201.235 433.183 198.759 433.774 196.145 434.226C193.556 434.679 190.703 434.905 187.587 434.905C179.895 434.905 174.089 432.605 170.168 428.005C166.247 423.406 164.287 416.632 164.287 407.684C164.287 398.183 166.247 391.02 170.168 386.194C174.089 381.368 179.895 378.955 187.587 378.955C190.502 378.955 193.116 379.207 195.429 379.709C197.766 380.212 200.016 380.865 202.177 381.67L200.217 387.25C199.186 386.873 198.168 386.533 197.163 386.232C196.158 385.93 195.14 385.679 194.109 385.478C193.104 385.277 192.061 385.126 190.98 385.025C189.899 384.925 188.768 384.874 187.587 384.874C184.797 384.874 182.396 385.377 180.386 386.382C178.375 387.363 176.716 388.808 175.409 390.718C174.102 392.603 173.134 394.916 172.506 397.655C171.878 400.37 171.563 403.461 171.563 406.93C171.563 410.499 171.878 413.654 172.506 416.393C173.134 419.133 174.102 421.445 175.409 423.33C176.716 425.19 178.375 426.598 180.386 427.553C182.396 428.508 184.797 428.986 187.587 428.986C190.15 428.986 192.588 428.772 194.901 428.345C197.213 427.917 199.513 427.352 201.8 426.648L203.572 432.454ZM223.765 393.923C224.997 393.923 226.279 394.023 227.611 394.224C228.943 394.4 230.25 394.752 231.532 395.28C232.814 395.833 234.02 396.587 235.151 397.542C236.308 398.472 237.326 399.691 238.205 401.199C239.085 402.733 239.776 404.58 240.279 406.742C240.782 408.878 241.033 411.429 241.033 414.395C241.033 417.361 240.782 419.925 240.279 422.086C239.776 424.223 239.085 426.045 238.205 427.553C237.326 429.086 236.308 430.33 235.151 431.285C234.02 432.241 232.814 432.982 231.532 433.51C230.25 434.063 228.943 434.427 227.611 434.603C226.279 434.804 224.997 434.905 223.765 434.905C222.559 434.905 221.29 434.804 219.958 434.603C218.651 434.427 217.356 434.063 216.074 433.51C214.792 432.982 213.586 432.241 212.455 431.285C211.324 430.33 210.318 429.086 209.439 427.553C208.559 426.045 207.868 424.223 207.365 422.086C206.862 419.925 206.611 417.361 206.611 414.395C206.611 411.429 206.862 408.878 207.365 406.742C207.868 404.58 208.559 402.733 209.439 401.199C210.318 399.691 211.324 398.472 212.455 397.542C213.586 396.587 214.792 395.833 216.074 395.28C217.356 394.752 218.651 394.4 219.958 394.224C221.265 394.023 222.534 393.923 223.765 393.923ZM223.765 399.239C222.333 399.239 220.976 399.465 219.694 399.917C218.437 400.37 217.331 401.162 216.376 402.293C215.396 403.449 214.616 404.995 214.038 406.93C213.46 408.865 213.171 411.354 213.171 414.395C213.171 417.411 213.46 419.899 214.038 421.86C214.616 423.795 215.396 425.329 216.376 426.46C217.331 427.616 218.437 428.42 219.694 428.873C220.976 429.3 222.333 429.513 223.765 429.513C225.223 429.513 226.593 429.3 227.875 428.873C229.182 428.42 230.326 427.616 231.306 426.46C232.286 425.329 233.053 423.795 233.606 421.86C234.184 419.899 234.473 417.411 234.473 414.395C234.473 411.354 234.184 408.865 233.606 406.93C233.053 404.995 232.286 403.449 231.306 402.293C230.326 401.162 229.182 400.37 227.875 399.917C226.593 399.465 225.223 399.239 223.765 399.239ZM256.061 400.257C255.03 400.257 254.088 400.244 253.233 400.219C252.379 400.194 251.549 400.144 250.745 400.068C249.966 399.968 249.161 399.817 248.332 399.616C247.528 399.415 246.648 399.138 245.693 398.786C246.02 397.882 246.334 397.002 246.635 396.147C246.962 395.293 247.289 394.388 247.616 393.433C248.621 393.759 249.513 394.011 250.293 394.187C251.072 394.363 251.838 394.501 252.592 394.601C253.346 394.677 254.126 394.727 254.93 394.752C255.734 394.777 256.689 394.79 257.795 394.79H273.63V399.314L253.95 428.533H273.969V434H245.844V429.438L265.486 400.257H256.061ZM312.599 394.79V434.867C312.599 437.355 312.184 439.504 311.355 441.314C310.55 443.124 309.419 444.619 307.961 445.801C306.529 446.982 304.82 447.849 302.834 448.402C300.848 448.98 298.687 449.269 296.349 449.269C294.238 449.269 292.114 449.081 289.978 448.704C287.841 448.352 285.805 447.849 283.87 447.196C284.197 446.316 284.536 445.461 284.888 444.632C285.24 443.803 285.592 442.973 285.943 442.144C286.547 442.345 287.263 442.558 288.092 442.785C288.947 443.011 289.839 443.212 290.769 443.388C291.724 443.589 292.692 443.74 293.672 443.84C294.678 443.966 295.645 444.029 296.575 444.029C298.033 444.029 299.353 443.828 300.534 443.425C301.715 443.048 302.721 442.47 303.55 441.691C304.38 440.912 305.008 439.944 305.435 438.788C305.888 437.657 306.114 436.35 306.114 434.867V426.347H305.398C304.744 427.528 303.99 428.646 303.136 429.702C302.281 430.732 301.338 431.637 300.308 432.417C299.277 433.196 298.159 433.799 296.952 434.226C295.771 434.679 294.514 434.905 293.182 434.905C291.347 434.905 289.751 434.691 288.394 434.264C287.037 433.862 285.868 433.259 284.888 432.454C283.933 431.625 283.141 430.607 282.513 429.4C281.909 428.169 281.444 426.749 281.118 425.14C280.841 423.707 280.665 422.174 280.59 420.54C280.514 418.907 280.477 417.223 280.477 415.488V394.79H286.961V417.298C286.961 418.932 287.037 420.465 287.188 421.898C287.338 423.305 287.665 424.537 288.168 425.592C288.696 426.623 289.462 427.44 290.468 428.043C291.473 428.621 292.843 428.91 294.577 428.91C295.859 428.91 297.066 428.609 298.197 428.005C299.328 427.377 300.371 426.585 301.326 425.63C302.281 424.675 303.148 423.619 303.927 422.463C304.732 421.307 305.46 420.176 306.114 419.07V394.79H312.599ZM321.745 379.709H328.23V412.359L345.874 393.923L350.135 398.07L334.865 413.792L354.131 434H346.063L328.23 415.149V434H321.745V379.709ZM386.314 431.813C383.524 432.919 380.897 433.711 378.434 434.189C375.996 434.666 373.809 434.905 371.874 434.905C368.908 434.905 366.319 434.44 364.107 433.51C361.895 432.555 360.048 431.223 358.565 429.513C357.107 427.804 356.001 425.768 355.247 423.406C354.518 421.018 354.154 418.391 354.154 415.526C354.154 413.767 354.279 412.007 354.531 410.248C354.782 408.488 355.184 406.817 355.737 405.233C356.29 403.625 357.007 402.129 357.886 400.747C358.791 399.364 359.884 398.171 361.166 397.165C362.448 396.16 363.944 395.368 365.653 394.79C367.362 394.212 369.31 393.923 371.497 393.923C377.102 393.923 381.324 395.682 384.165 399.201C387.005 402.695 388.425 407.709 388.425 414.244V416.318H360.827C360.827 418.429 361.053 420.302 361.506 421.935C361.958 423.544 362.649 424.914 363.579 426.045C364.534 427.151 365.728 427.993 367.161 428.571C368.619 429.149 370.34 429.438 372.326 429.438C373.432 429.438 374.525 429.363 375.606 429.212C376.712 429.036 377.78 428.822 378.811 428.571C379.841 428.294 380.822 427.993 381.752 427.666C382.707 427.339 383.599 427.025 384.428 426.724L386.314 431.813ZM381.902 411.115C381.701 407.043 380.721 404.077 378.962 402.217C377.227 400.332 374.739 399.39 371.497 399.39C368.254 399.39 365.779 400.332 364.069 402.217C362.385 404.077 361.367 407.043 361.016 411.115H381.902ZM426.413 394.79V434.867C426.413 437.355 425.999 439.504 425.169 441.314C424.365 443.124 423.234 444.619 421.776 445.801C420.343 446.982 418.634 447.849 416.648 448.402C414.663 448.98 412.501 449.269 410.164 449.269C408.052 449.269 405.929 449.081 403.792 448.704C401.656 448.352 399.62 447.849 397.684 447.196C398.011 446.316 398.35 445.461 398.702 444.632C399.054 443.803 399.406 442.973 399.758 442.144C400.361 442.345 401.078 442.558 401.907 442.785C402.762 443.011 403.654 443.212 404.584 443.388C405.539 443.589 406.507 443.74 407.487 443.84C408.492 443.966 409.46 444.029 410.39 444.029C411.848 444.029 413.167 443.828 414.349 443.425C415.53 443.048 416.535 442.47 417.365 441.691C418.194 440.912 418.823 439.944 419.25 438.788C419.702 437.657 419.929 436.35 419.929 434.867V426.347H419.212C418.559 427.528 417.805 428.646 416.95 429.702C416.096 430.732 415.153 431.637 414.122 432.417C413.092 433.196 411.973 433.799 410.767 434.226C409.586 434.679 408.329 434.905 406.997 434.905C405.162 434.905 403.566 434.691 402.209 434.264C400.851 433.862 399.683 433.259 398.702 432.454C397.747 431.625 396.956 430.607 396.327 429.4C395.724 428.169 395.259 426.749 394.932 425.14C394.656 423.707 394.48 422.174 394.404 420.54C394.329 418.907 394.291 417.223 394.291 415.488V394.79H400.776V417.298C400.776 418.932 400.851 420.465 401.002 421.898C401.153 423.305 401.48 424.537 401.982 425.592C402.51 426.623 403.277 427.44 404.282 428.043C405.288 428.621 406.657 428.91 408.392 428.91C409.674 428.91 410.88 428.609 412.011 428.005C413.142 427.377 414.185 426.585 415.14 425.63C416.096 424.675 416.963 423.619 417.742 422.463C418.546 421.307 419.275 420.176 419.929 419.07V394.79H426.413Z" fill="white"/>
</svg>
