<svg width="57" height="8" viewBox="0 0 57 8" fill="none" xmlns="http://www.w3.org/2000/svg">
<path d="M3.70739 7.12784C3.03409 7.12784 2.45455 6.99148 1.96875 6.71875C1.4858 6.44318 1.11364 6.05398 0.852273 5.55114C0.590909 5.04545 0.460227 4.44744 0.460227 3.7571C0.460227 3.08381 0.590909 2.4929 0.852273 1.98438C1.11364 1.47585 1.48153 1.07955 1.95597 0.795454C2.43324 0.511364 2.9929 0.369318 3.63494 0.369318C4.06676 0.369318 4.46875 0.43892 4.84091 0.578125C5.21591 0.714489 5.54261 0.920454 5.82102 1.19602C6.10227 1.47159 6.32102 1.81818 6.47727 2.2358C6.63352 2.65057 6.71165 3.13636 6.71165 3.69318V4.19176H1.18466V3.06676H5.00284C5.00284 2.8054 4.94602 2.57386 4.83239 2.37216C4.71875 2.17045 4.56108 2.01278 4.35938 1.89915C4.16051 1.78267 3.92898 1.72443 3.66477 1.72443C3.3892 1.72443 3.14489 1.78835 2.93182 1.91619C2.72159 2.04119 2.55682 2.21023 2.4375 2.4233C2.31818 2.63352 2.2571 2.8679 2.25426 3.12642V4.19602C2.25426 4.51989 2.31392 4.79972 2.43324 5.03551C2.5554 5.27131 2.72727 5.45312 2.94886 5.58097C3.17045 5.70881 3.43324 5.77273 3.73722 5.77273C3.93892 5.77273 4.12358 5.74432 4.29119 5.6875C4.45881 5.63068 4.60227 5.54545 4.72159 5.43182C4.84091 5.31818 4.93182 5.17898 4.99432 5.0142L6.6733 5.125C6.58807 5.52841 6.41335 5.88068 6.14915 6.18182C5.88778 6.48011 5.54972 6.71307 5.13494 6.88068C4.72301 7.04545 4.24716 7.12784 3.70739 7.12784ZM10.8793 7.12784C10.206 7.12784 9.62642 6.99148 9.14062 6.71875C8.65767 6.44318 8.28551 6.05398 8.02415 5.55114C7.76278 5.04545 7.6321 4.44744 7.6321 3.7571C7.6321 3.08381 7.76278 2.4929 8.02415 1.98438C8.28551 1.47585 8.65341 1.07955 9.12784 0.795454C9.60511 0.511364 10.1648 0.369318 10.8068 0.369318C11.2386 0.369318 11.6406 0.43892 12.0128 0.578125C12.3878 0.714489 12.7145 0.920454 12.9929 1.19602C13.2741 1.47159 13.4929 1.81818 13.6491 2.2358C13.8054 2.65057 13.8835 3.13636 13.8835 3.69318V4.19176H8.35653V3.06676H12.1747C12.1747 2.8054 12.1179 2.57386 12.0043 2.37216C11.8906 2.17045 11.733 2.01278 11.5312 1.89915C11.3324 1.78267 11.1009 1.72443 10.8366 1.72443C10.5611 1.72443 10.3168 1.78835 10.1037 1.91619C9.89347 2.04119 9.72869 2.21023 9.60938 2.4233C9.49006 2.63352 9.42898 2.8679 9.42614 3.12642V4.19602C9.42614 4.51989 9.4858 4.79972 9.60511 5.03551C9.72727 5.27131 9.89915 5.45312 10.1207 5.58097C10.3423 5.70881 10.6051 5.77273 10.9091 5.77273C11.1108 5.77273 11.2955 5.74432 11.4631 5.6875C11.6307 5.63068 11.7741 5.54545 11.8935 5.43182C12.0128 5.31818 12.1037 5.17898 12.1662 5.0142L13.8452 5.125C13.7599 5.52841 13.5852 5.88068 13.321 6.18182C13.0597 6.48011 12.7216 6.71307 12.3068 6.88068C11.8949 7.04545 11.419 7.12784 10.8793 7.12784ZM20.5142 2.32102L18.8523 2.4233C18.8239 2.28125 18.7628 2.15341 18.669 2.03977C18.5753 1.9233 18.4517 1.83097 18.2983 1.76278C18.1477 1.69176 17.9673 1.65625 17.7571 1.65625C17.4759 1.65625 17.2386 1.71591 17.0455 1.83523C16.8523 1.9517 16.7557 2.10795 16.7557 2.30398C16.7557 2.46023 16.8182 2.59233 16.9432 2.70028C17.0682 2.80824 17.2827 2.89489 17.5866 2.96023L18.7713 3.19886C19.4077 3.32955 19.8821 3.53977 20.1946 3.82955C20.5071 4.11932 20.6634 4.5 20.6634 4.97159C20.6634 5.40057 20.5369 5.77699 20.2841 6.10085C20.0341 6.42472 19.6903 6.67756 19.2528 6.85938C18.8182 7.03835 18.3168 7.12784 17.7486 7.12784C16.8821 7.12784 16.1918 6.94744 15.6776 6.58665C15.1662 6.22301 14.8665 5.72869 14.7784 5.10369L16.5639 5.00994C16.6179 5.27415 16.7486 5.47585 16.956 5.61506C17.1634 5.75142 17.429 5.8196 17.7528 5.8196C18.071 5.8196 18.3267 5.75852 18.5199 5.63636C18.7159 5.51136 18.8153 5.35085 18.8182 5.15483C18.8153 4.99006 18.7457 4.85511 18.6094 4.75C18.473 4.64205 18.2628 4.55966 17.9787 4.50284L16.8452 4.27699C16.206 4.14915 15.7301 3.92756 15.4176 3.61222C15.108 3.29687 14.9531 2.89489 14.9531 2.40625C14.9531 1.9858 15.0668 1.62358 15.294 1.3196C15.5241 1.01562 15.8466 0.78125 16.2614 0.616477C16.679 0.451705 17.1676 0.369318 17.7273 0.369318C18.554 0.369318 19.2045 0.544034 19.679 0.893466C20.1563 1.2429 20.4347 1.71875 20.5142 2.32102ZM24.7894 7.12784C24.1161 7.12784 23.5366 6.99148 23.0508 6.71875C22.5678 6.44318 22.1957 6.05398 21.9343 5.55114C21.6729 5.04545 21.5423 4.44744 21.5423 3.7571C21.5423 3.08381 21.6729 2.4929 21.9343 1.98438C22.1957 1.47585 22.5636 1.07955 23.038 0.795454C23.5153 0.511364 24.0749 0.369318 24.717 0.369318C25.1488 0.369318 25.5508 0.43892 25.9229 0.578125C26.2979 0.714489 26.6246 0.920454 26.9031 1.19602C27.1843 1.47159 27.4031 1.81818 27.5593 2.2358C27.7156 2.65057 27.7937 3.13636 27.7937 3.69318V4.19176H22.2667V3.06676H26.0849C26.0849 2.8054 26.0281 2.57386 25.9144 2.37216C25.8008 2.17045 25.6431 2.01278 25.4414 1.89915C25.2425 1.78267 25.011 1.72443 24.7468 1.72443C24.4712 1.72443 24.2269 1.78835 24.0138 1.91619C23.8036 2.04119 23.6388 2.21023 23.5195 2.4233C23.4002 2.63352 23.3391 2.8679 23.3363 3.12642V4.19602C23.3363 4.51989 23.396 4.79972 23.5153 5.03551C23.6374 5.27131 23.8093 5.45312 24.0309 5.58097C24.2525 5.70881 24.5153 5.77273 24.8192 5.77273C25.021 5.77273 25.2056 5.74432 25.3732 5.6875C25.5408 5.63068 25.6843 5.54545 25.8036 5.43182C25.9229 5.31818 26.0138 5.17898 26.0763 5.0142L27.7553 5.125C27.6701 5.52841 27.4954 5.88068 27.2312 6.18182C26.9698 6.48011 26.6317 6.71307 26.217 6.88068C25.805 7.04545 25.3292 7.12784 24.7894 7.12784ZM30.7937 3.21591V7H28.9783V0.454545H30.7085V1.60938H30.7852C30.93 1.22869 31.1729 0.927557 31.5138 0.705966C31.8548 0.481534 32.2681 0.369318 32.7539 0.369318C33.2085 0.369318 33.6048 0.46875 33.9428 0.667614C34.2809 0.866477 34.5437 1.15057 34.7312 1.51989C34.9187 1.88636 35.0124 2.32386 35.0124 2.83239V7H33.1971V3.15625C33.1999 2.75568 33.0977 2.44318 32.8903 2.21875C32.6829 1.99148 32.3974 1.87784 32.0337 1.87784C31.7894 1.87784 31.5735 1.9304 31.386 2.03551C31.2013 2.14062 31.0565 2.29403 30.9513 2.49574C30.8491 2.6946 30.7965 2.93466 30.7937 3.21591ZM41.8892 2.32102L40.2273 2.4233C40.1989 2.28125 40.1378 2.15341 40.044 2.03977C39.9503 1.9233 39.8267 1.83097 39.6733 1.76278C39.5227 1.69176 39.3423 1.65625 39.1321 1.65625C38.8509 1.65625 38.6136 1.71591 38.4205 1.83523C38.2273 1.9517 38.1307 2.10795 38.1307 2.30398C38.1307 2.46023 38.1932 2.59233 38.3182 2.70028C38.4432 2.80824 38.6577 2.89489 38.9616 2.96023L40.1463 3.19886C40.7827 3.32955 41.2571 3.53977 41.5696 3.82955C41.8821 4.11932 42.0384 4.5 42.0384 4.97159C42.0384 5.40057 41.9119 5.77699 41.6591 6.10085C41.4091 6.42472 41.0653 6.67756 40.6278 6.85938C40.1932 7.03835 39.6918 7.12784 39.1236 7.12784C38.2571 7.12784 37.5668 6.94744 37.0526 6.58665C36.5412 6.22301 36.2415 5.72869 36.1534 5.10369L37.9389 5.00994C37.9929 5.27415 38.1236 5.47585 38.331 5.61506C38.5384 5.75142 38.804 5.8196 39.1278 5.8196C39.446 5.8196 39.7017 5.75852 39.8949 5.63636C40.0909 5.51136 40.1903 5.35085 40.1932 5.15483C40.1903 4.99006 40.1207 4.85511 39.9844 4.75C39.848 4.64205 39.6378 4.55966 39.3537 4.50284L38.2202 4.27699C37.581 4.14915 37.1051 3.92756 36.7926 3.61222C36.483 3.29687 36.3281 2.89489 36.3281 2.40625C36.3281 1.9858 36.4418 1.62358 36.669 1.3196C36.8991 1.01562 37.2216 0.78125 37.6364 0.616477C38.054 0.451705 38.5426 0.369318 39.1023 0.369318C39.929 0.369318 40.5795 0.544034 41.054 0.893466C41.5313 1.2429 41.8097 1.71875 41.8892 2.32102ZM45.0479 7.12358C44.6303 7.12358 44.2582 7.05114 43.9315 6.90625C43.6048 6.75852 43.3462 6.54119 43.1559 6.25426C42.9684 5.96449 42.8746 5.60369 42.8746 5.17188C42.8746 4.80824 42.9414 4.50284 43.0749 4.25568C43.2085 4.00852 43.3903 3.80966 43.6204 3.65909C43.8505 3.50852 44.1119 3.39489 44.4045 3.31818C44.6999 3.24148 45.0096 3.1875 45.3335 3.15625C45.7141 3.11648 46.021 3.07955 46.2539 3.04545C46.4869 3.00852 46.6559 2.95455 46.761 2.88352C46.8661 2.8125 46.9187 2.70739 46.9187 2.56818V2.54261C46.9187 2.27273 46.8335 2.06392 46.663 1.91619C46.4954 1.76847 46.2567 1.6946 45.9471 1.6946C45.6204 1.6946 45.3604 1.76705 45.1673 1.91193C44.9741 2.05398 44.8462 2.23295 44.7837 2.44886L43.1048 2.3125C43.19 1.91477 43.3576 1.57102 43.6076 1.28125C43.8576 0.988636 44.18 0.764204 44.5749 0.607954C44.9727 0.448864 45.4329 0.369318 45.9556 0.369318C46.3192 0.369318 46.6673 0.411932 46.9996 0.497159C47.3349 0.582386 47.6317 0.714489 47.8903 0.893466C48.1516 1.07244 48.3576 1.30256 48.5082 1.58381C48.6587 1.86222 48.734 2.19602 48.734 2.58523V7H47.0124V6.09233H46.9613C46.8562 6.29688 46.7156 6.47727 46.5394 6.63352C46.3633 6.78693 46.1516 6.90767 45.9045 6.99574C45.6573 7.08097 45.3718 7.12358 45.0479 7.12358ZM45.5678 5.87074C45.8349 5.87074 46.0707 5.81818 46.2752 5.71307C46.4798 5.60511 46.6403 5.46023 46.7567 5.27841C46.8732 5.09659 46.9315 4.89062 46.9315 4.66051V3.96591C46.8746 4.00284 46.7965 4.03693 46.6971 4.06818C46.6005 4.09659 46.4911 4.12358 46.369 4.14915C46.2468 4.17187 46.1246 4.19318 46.0025 4.21307C45.8803 4.23011 45.7695 4.24574 45.6701 4.25994C45.457 4.29119 45.271 4.34091 45.1119 4.40909C44.9528 4.47727 44.8292 4.5696 44.7411 4.68608C44.6531 4.79972 44.609 4.94176 44.609 5.11222C44.609 5.35938 44.6985 5.5483 44.8775 5.67898C45.0593 5.80682 45.2894 5.87074 45.5678 5.87074ZM51.9577 3.21591V7H50.1424V0.454545H51.8725V1.60938H51.9492C52.0941 1.22869 52.337 0.927557 52.6779 0.705966C53.0188 0.481534 53.4322 0.369318 53.918 0.369318C54.3725 0.369318 54.7688 0.46875 55.1069 0.667614C55.445 0.866477 55.7077 1.15057 55.8952 1.51989C56.0827 1.88636 56.1765 2.32386 56.1765 2.83239V7H54.3612V3.15625C54.364 2.75568 54.2617 2.44318 54.0543 2.21875C53.8469 1.99148 53.5614 1.87784 53.1978 1.87784C52.9535 1.87784 52.7376 1.9304 52.5501 2.03551C52.3654 2.14062 52.2205 2.29403 52.1154 2.49574C52.0131 2.6946 51.9606 2.93466 51.9577 3.21591Z" fill="white"/>
</svg>
